# xmcd CD database file
#
# Track frame offsets:
#	150
#	62378
#	77538
#	105200
#	148551
#	186004
#	213867
#	269411
#
# Disc length: 4068 seconds
#
# Revision: 0
# Processed by: cddbd v1.5.2PL0 Copyright (c) Steve Scherf et al.
# Submitted via: CDex 1.70beta2
#
DISCID=5f0fe208
DTITLE=Various Artist - Tenor Sax - CD 2
DYEAR=2008
DGENRE=Jazz
TTITLE0=The steeplechase - Dexter Gordon and Wardell Gray w. Just Jazz All Stars
TTITLE1=These foolish things - Stan Getz
TTITLE2=Sunday - Stan Getz and The Oscar Peterson Trio
TTITLE3=The way you look tonight - Johnny Griffin - Hank Mobley - John Coltrane
TTITLE4=Tenor Conclave - Tenor Conclave
TTITLE5=Along came Betty - Benny Golson w. Art Blakey and The Jass Messengers
TTITLE6=After hours - Sonny Rollins - Sonny Stitt - Dizzy Gillespie
TTITLE7=Fine and Mellow - Billie Holiday
EXTD=YEAR: 2008
EXTT0=
EXTT1=
EXTT2=
EXTT3=
EXTT4=
EXTT5=
EXTT6=
EXTT7=
PLAYORDER=
